<?xml version="1.0" encoding="UTF-8"?><svg id="Layer_1" xmlns="http://www.w3.org/2000/svg" viewBox="0 0 67.82 40"><defs><style>.cls-1{fill:#fff;}.cls-2{fill:none;}.cls-3{fill:#234c4b;}</style></defs><path class="cls-2" d="M67.82,0v40H0V0h67.82ZM62.14,16.96v1.46c0,1.31-2.06,2.85-3.23,3.15-7.84,1.99-9.92-11.24-4.2-14.43,2.45-1.36,5.3-.55,7.07,1.48.13.15.58.89.7.86l3.37-3.56c.06-.09.02-.15-.03-.24-.22-.39-1.02-1.22-1.37-1.55-4.89-4.47-12.99-3.2-16.32,2.49-3.08,5.26-2.27,14.09,2.75,17.93,4.11,3.14,10.46,3.04,13.93-1.02,2.59-3.04,2.19-7.08,2.21-10.82h-9.49s-.12-.11-.2-.08c.02.08-.08.17-.08.2v3.94s.1.12.08.2h4.8ZM6.72,18.61c2.73.1,5.64.39,8.3-.32,9.24-2.48,7.48-16.19-1.96-16.45H1.05v24.56h5.67v-7.79ZM28.48,1.84h-5.79v23.85l5.12-.43v-14.6l6.06,9.84,5.98-10.08v14.84l4.77.51c.07.02.19-.08.19-.11V1.84h-5.39l-5.59,9.76L28.48,1.84ZM40.95,27.77c-10.43.13-21.5,1.6-31.44,4.78-1.13.36-2.63.79-3.68,1.28-.26.12-.5.19-.59.49.02.3,1.81.63,2.15.74,1.49.5,3.37,1.33,4.73,2.11.61.35,1.47,1.12,2.04,1.34.82.32,1.29-.36,1.95-.71,5.59-3.05,13.26-4.85,19.55-5.8,7.28-1.09,15.73-1.57,23.05-.8,1.05.11,2.2.42,3.23.47.38.02,1.91-.01,1.33-.7-.27-.32-2.53-.95-3.07-1.1-6-1.65-13.04-2.18-19.26-2.11Z"/><path class="cls-3" d="M28.09,1.84l5.35,9.76,5.59-9.76h5.39v23.81s-.12.13-.19.11l-4.77-.51v-14.84l-5.98,10.08-6.06-9.84v14.6l-5.12.43V1.84h5.79Z"/><path class="cls-3" d="M6.32,18.61v7.79H.66V1.84h12.01c9.44.25,11.19,13.97,1.96,16.45-2.66.71-5.57.42-8.3.32ZM6.32,13.81h5.79c.17,0,1.15-.36,1.35-.46,2.55-1.26,2.35-4.96-.1-6.22-.23-.12-.96-.4-1.17-.4h-5.86v7.09Z"/><path class="cls-3" d="M61.74,16.96h-4.8c.03-.08-.08-.17-.08-.2v-3.94s.1-.12.08-.2c.08-.03.17.08.2.08h9.49c-.02,3.74.39,7.79-2.21,10.82-3.46,4.06-9.82,4.16-13.93,1.02-5.02-3.84-5.83-12.67-2.75-17.93,3.33-5.69,11.43-6.96,16.32-2.49.35.32,1.15,1.16,1.37,1.55.05.08.09.14.03.24l-3.37,3.56c-.12.03-.57-.71-.7-.86-1.77-2.03-4.62-2.84-7.07-1.48-5.73,3.19-3.65,16.42,4.2,14.43,1.17-.3,3.23-1.84,3.23-3.15v-1.46Z"/><path class="cls-3" d="M40.55,27.77c6.21-.07,13.26.46,19.26,2.11.54.15,2.8.78,3.07,1.1.57.69-.95.72-1.33.7-1.03-.05-2.18-.36-3.23-.47-7.32-.77-15.77-.29-23.05.8-6.29.94-13.96,2.74-19.55,5.8-.65.36-1.12,1.04-1.95.71-.57-.23-1.43-.99-2.04-1.34-1.36-.78-3.24-1.62-4.73-2.11-.34-.11-2.13-.44-2.15-.74.09-.31.34-.37.59-.49,1.05-.49,2.55-.92,3.68-1.28,9.94-3.18,21-4.65,31.44-4.78Z"/><path class="cls-1" d="M6.32,13.81v-7.09h5.86c.21,0,.94.29,1.17.4,2.45,1.26,2.65,4.96.1,6.22-.2.1-1.19.46-1.35.46h-5.79Z"/></svg>