<?xml version="1.0" encoding="UTF-8"?><svg id="Layer_1" xmlns="http://www.w3.org/2000/svg" viewBox="0 0 47.47 28"><defs><style>.cls-1{fill:#fff;}.cls-2{fill:none;}.cls-3{fill:#234c4b;}</style></defs><path class="cls-2" d="M47.47,0v28H0V0h47.47ZM43.5,11.87v1.02c0,.92-1.44,2-2.26,2.2-5.49,1.4-6.94-7.87-2.94-10.1,1.71-.95,3.71-.39,4.95,1.04.09.11.4.62.49.6l2.36-2.49c.04-.07.01-.11-.02-.17-.15-.27-.71-.86-.96-1.08-3.42-3.13-9.09-2.24-11.42,1.75-2.16,3.68-1.59,9.86,1.92,12.55,2.87,2.2,7.32,2.13,9.75-.71,1.82-2.12,1.53-4.96,1.54-7.58h-6.64s-.08-.08-.14-.06c.02.05-.06.12-.06.14v2.76s.07.08.06.14h3.36ZM4.7,13.03c1.91.07,3.95.28,5.81-.22,6.46-1.74,5.23-11.34-1.37-11.51H.73v17.2h3.97v-5.46ZM19.94,1.29h-4.05v16.7l3.58-.3V7.46l4.24,6.89,4.19-7.05v10.39l3.34.36s.13-.06.13-.08V1.29h-3.77l-3.91,6.83-3.75-6.83ZM28.66,19.44c-7.3.09-15.05,1.12-22,3.34-.79.25-1.84.55-2.58.9-.18.08-.35.13-.41.35.02.21,1.27.44,1.51.52,1.04.35,2.36.93,3.31,1.48.43.25,1.03.78,1.43.94.58.23.91-.25,1.36-.5,3.91-2.14,9.28-3.4,13.68-4.06,5.1-.77,11.01-1.1,16.14-.56.74.08,1.54.3,2.26.33.27.01,1.33,0,.93-.49-.19-.23-1.77-.67-2.15-.77-4.2-1.15-9.13-1.53-13.48-1.48Z"/><path class="cls-3" d="M19.66,1.29l3.75,6.83,3.91-6.83h3.77v16.67s-.09.09-.13.08l-3.34-.36V7.3l-4.19,7.05-4.24-6.89v10.22l-3.58.3V1.29h4.05Z"/><path class="cls-3" d="M4.43,13.03v5.46H.46V1.29h8.41c6.61.18,7.84,9.78,1.37,11.51-1.86.5-3.9.29-5.81.22ZM4.43,9.67h4.05c.12,0,.8-.25.95-.32,1.79-.89,1.64-3.47-.07-4.36-.16-.08-.67-.28-.82-.28h-4.11v4.96Z"/><path class="cls-3" d="M43.22,11.87h-3.36c.02-.05-.06-.12-.06-.14v-2.76s.07-.08.06-.14c.06-.02.12.06.14.06h6.64c-.01,2.62.27,5.45-1.54,7.58-2.43,2.84-6.87,2.91-9.75.71-3.51-2.69-4.08-8.87-1.92-12.55,2.33-3.98,8-4.87,11.42-1.75.25.23.81.81.96,1.08.03.06.06.1.02.17l-2.36,2.49c-.09.02-.4-.5-.49-.6-1.24-1.42-3.24-1.99-4.95-1.04-4.01,2.23-2.55,11.5,2.94,10.1.82-.21,2.26-1.29,2.26-2.2v-1.02Z"/><path class="cls-3" d="M28.39,19.44c4.35-.05,9.28.32,13.48,1.48.38.1,1.96.55,2.15.77.4.48-.66.5-.93.49-.72-.03-1.52-.25-2.26-.33-5.12-.54-11.04-.21-16.14.56-4.4.66-9.77,1.92-13.68,4.06-.46.25-.79.73-1.36.5-.4-.16-1-.69-1.43-.94-.95-.55-2.27-1.13-3.31-1.48-.24-.08-1.49-.31-1.51-.52.07-.21.24-.26.41-.35.73-.34,1.79-.64,2.58-.9,6.96-2.23,14.7-3.26,22-3.34Z"/><path class="cls-1" d="M4.43,9.67v-4.96h4.11c.15,0,.66.2.82.28,1.71.88,1.86,3.47.07,4.36-.14.07-.83.32-.95.32h-4.05Z"/></svg>